<?xml version="1.0" standalone="no"?>
<!DOCTYPE svg PUBLIC "-//W3C//DTD SVG 20010904//EN"
 "http://www.w3.org/TR/2001/REC-SVG-20010904/DTD/svg10.dtd">
<svg version="1.0" xmlns="http://www.w3.org/2000/svg"
 width="500.000000pt" height="500.000000pt" viewBox="0 0 500.000000 500.000000"
 preserveAspectRatio="xMidYMid meet">

<g transform="translate(0.000000,500.000000) scale(0.100000,-0.100000)"
fill="#ddFFFF" stroke="none">
<path d="M1132 4416 c-226 -43 -407 -136 -569 -289 -184 -175 -313 -416 -373
-697 -30 -138 -24 -336 13 -485 105 -415 401 -884 914 -1452 144 -159 495
-508 678 -673 276 -249 684 -590 706 -590 13 0 241 185 444 359 826 711 1426
1401 1700 1956 205 415 238 700 121 1055 -65 201 -163 360 -310 506 -140 139
-264 217 -429 269 -505 161 -1055 -46 -1352 -510 -45 -71 -115 -213 -145 -292
-12 -35 -26 -63 -30 -63 -5 0 -16 24 -25 53 -25 74 -104 233 -158 314 -175
263 -422 442 -715 519 -122 32 -355 42 -470 20z"/>
</g>
</svg>
